<?xml version="1.0" encoding="utf-8"?>
<!-- Generator: Adobe Illustrator 26.0.0, SVG Export Plug-In . SVG Version: 6.00 Build 0)  -->
<svg version="1.1" id="Layer_1" xmlns="http://www.w3.org/2000/svg" xmlns:xlink="http://www.w3.org/1999/xlink" x="0px" y="0px"
	 viewBox="0 0 5000 2916" style="enable-background:new 0 0 5000 2916;" xml:space="preserve">
<style type="text/css">
	.st0{fill-rule:evenodd;clip-rule:evenodd;fill:#FFFFFF;}
	.st1{fill-rule:evenodd;clip-rule:evenodd;fill:#269FBA;}
	.st2{fill-rule:evenodd;clip-rule:evenodd;fill:#37C4CC;}
	.st3{fill-rule:evenodd;clip-rule:evenodd;fill:#177CA9;}
	.st4{fill-rule:evenodd;clip-rule:evenodd;fill:#0A5E9A;}
	.st5{fill-rule:evenodd;clip-rule:evenodd;fill:#45E5DC;}
	.st6{fill:#0067AF;}
	.st7{fill:#00478F;}
</style>
<g>
	<rect x="13" class="st0" width="5000" height="2916"/>
	<polygon class="st1" points="1374.53,2217.38 1999.33,2916 2232.96,2456.02 1861.1,2352.65 	"/>
	<polygon class="st2" points="2232.96,2456.02 1999.33,2916 2842.99,2916 	"/>
	<polygon class="st1" points="2232.96,2456.02 2842.99,2916 2920.86,2212.4 	"/>
	<polygon class="st3" points="2920.86,2212.4 2842.99,2916 3621.75,2222.35 	"/>
	<polygon class="st1" points="3621.75,2222.35 2842.99,2916 3890.96,2652.5 	"/>
	<polygon class="st3" points="3890.96,2652.5 2842.99,2916 3998.15,2916 4499.21,2499.57 	"/>
	<polygon class="st4" points="4192.84,1735.12 3890.96,2652.5 4499.21,2499.57 	"/>
	<polygon class="st3" points="3890.96,2652.5 4192.84,1735.12 3621.75,2222.35 	"/>
	<polygon class="st4" points="4499.21,2499.57 3998.15,2916 5000.27,2916 	"/>
	<polygon class="st3" points="4499.21,2499.57 5000.27,2916 5000.27,2083.14 	"/>
	<polygon class="st1" points="4499.21,2499.57 5000.27,2083.14 4688.27,1948.66 4192.84,1735.12 	"/>
	<polygon class="st4" points="4688.27,1948.66 5000.27,2083.14 5000.27,1466.65 	"/>
	<polygon class="st3" points="4688.27,1948.66 5000.27,1466.65 4595.2,1585.97 	"/>
	<polygon class="st4" points="4688.27,1948.66 4595.2,1585.97 4192.84,1735.12 	"/>
	<polygon class="st1" points="4192.84,1735.12 4595.2,1585.97 4303.17,1397.04 	"/>
	<polygon class="st4" points="4303.17,1397.04 4595.2,1585.97 5000.27,1466.65 	"/>
	<polygon class="st3" points="4303.17,1397.04 5000.27,1466.65 4556.26,1213.09 	"/>
	<polygon class="st4" points="4556.26,1213.09 5000.27,1466.65 5000.27,1019.19 	"/>
	<polygon class="st3" points="4556.26,1213.09 5000.27,1019.19 5000.27,566.77 	"/>
	<polygon class="st2" points="4501.09,377.85 5000.27,566.77 5000.27,0 	"/>
	<polygon class="st2" points="5000.27,566.77 4312.9,884.96 4556.26,1213.09 	"/>
	<polygon class="st5" points="4423.22,1188.49 4231.08,929.43 3936.48,1282.69 	"/>
	<polygon class="st1" points="4556.26,1213.09 3939.74,1332.41 4303.17,1397.04 	"/>
	<polygon class="st2" points="4303.17,1397.04 3939.74,1332.41 3963.28,1653.83 	"/>
	<polygon class="st5" points="4303.17,1397.04 3963.28,1653.83 3522.99,1986.47 4192.84,1735.12 	"/>
	<polygon class="st5" points="3891.89,1592.77 3872.16,1323.34 3404.33,1598.4 	"/>
	<polygon class="st2" points="3963.28,1653.83 3381.63,1660.54 3522.99,1986.47 	"/>
	<polygon class="st4" points="4192.84,1735.12 3522.99,1986.47 3621.75,2222.35 	"/>
	<polygon class="st2" points="3621.75,2222.35 3522.99,1986.47 2920.86,2212.4 	"/>
	<polygon class="st5" points="2920.86,2212.4 3522.99,1986.47 3381.63,1660.54 	"/>
	<polygon class="st1" points="2920.86,2212.4 3381.63,1660.54 2382.22,1998.62 	"/>
	<polygon class="st2" points="2382.22,1998.62 3381.63,1660.54 2911.13,1556.15 	"/>
	<polygon class="st5" points="2380.26,1882.3 2843.76,1494.55 2093.05,1651.39 	"/>
	<polygon class="st2" points="2382.22,1998.62 1861.1,2352.65 2232.96,2456.02 	"/>
	<polygon class="st3" points="2382.22,1998.62 2232.96,2456.02 2920.86,2212.4 	"/>
	<polygon class="st2" points="1859.8,1924.05 2382.22,1998.62 2054.49,1735.13 	"/>
	<polygon class="st5" points="5000.27,566.77 4501.09,377.85 4312.9,884.96 	"/>
	<path class="st6" d="M1865.12,1920.05l499.63,71.31l-314.61-252.94l-265.76-182.25L1865.12,1920.05z M2381.12,2003.23
		l-526.64-75.17c-29.3-132.25-58.68-264.49-88.03-396.74c96.97,66.5,197.48,132.77,292.47,200.58l340.78,273.98L2381.12,2003.23z"/>
	<polygon class="st6" points="2377.72,1995.47 2905.55,1553.89 3009,1231.9 3020.88,1234.13 2916.7,1558.41 2386.73,2001.78 	"/>
	<path class="st6" d="M3948.14,1658.68l-558.09,6.44l135.63,312.72L3948.14,1658.68z M3020.04,1230.45l364.85,425.38l593.52-6.85
		c-152.7,115.37-305.4,230.75-458.12,346.11l-144.2-332.48l-366.25-427.02L3020.04,1230.45z"/>
	<polygon class="st6" points="3384.1,1664.84 2384.69,2002.92 2379.76,1994.33 3379.17,1656.25 	"/>
	<path class="st6" d="M4550.94,1215.4l-246.31-332.1l682.91-316.12l-487.24-184.4l-341.95,58.23l157,437.33l-10.72,4.96
		L4142.9,434.06l358.99-61.13c170.38,64.47,340.74,128.96,511.12,193.43l-691.84,320.26l240.42,324.16L4550.94,1215.4z"/>
	<path class="st7" d="M3716.33,1224.29l-299.3,178.34l-76.13-214.71l387.54,29.16L3716.33,1224.29z M3424.04,1386.56l272.66-162.46
		l-339.31-25.53L3424.04,1386.56z"/>
	<path class="st7" d="M3945.39,875.87l-166.09,270.06l-77.27-217.96l249.38-61.89L3945.39,875.87z M3782.42,1118.87l145.89-237.21
		l-211.39,52.46L3782.42,1118.87z"/>
	<path class="st7" d="M2745.87,1462.4l-380.56,64.22l178.06-180.02l216.31,113.47L2745.87,1462.4z M2395.17,1511.96l334.25-56.41
		l-183.33-96.17L2395.17,1511.96z"/>
	<polygon class="st1" points="3634.73,1106.46 3546.42,863.55 3404.33,1083.82 	"/>
	<polygon class="st1" points="2859.68,1433.27 2825.53,1292.75 2645.5,1341.03 	"/>
	<polygon class="st1" points="4217.62,890.81 4152.34,663.03 4007.06,858.31 	"/>
	<polygon class="st1" points="1796.84,1868.71 1757.82,1710.79 1662.41,1845.84 	"/>
</g>
</svg>
